<svg xmlns="http://www.w3.org/2000/svg" xmlns:xlink="http://www.w3.org/1999/xlink" width="500" zoomAndPan="magnify" viewBox="0 0 375 374.999991" height="500" preserveAspectRatio="xMidYMid meet" version="1.0"><defs><g/><clipPath id="5a2816d3a9"><path d="M 112.53125 112.53125 L 276.03125 112.53125 L 276.03125 276.03125 L 112.53125 276.03125 Z M 112.53125 112.53125 " clip-rule="nonzero"/></clipPath><clipPath id="e4c26632ad"><path d="M 98.6875 98.6875 L 266.6875 98.6875 L 266.6875 266.6875 L 98.6875 266.6875 Z M 98.6875 98.6875 " clip-rule="nonzero"/></clipPath></defs><g clip-path="url(#5a2816d3a9)"><path fill="#7ed957" d="M 112.53125 112.53125 L 276.03125 112.53125 L 276.03125 276.03125 L 112.53125 276.03125 L 112.53125 112.53125 " fill-opacity="1" fill-rule="nonzero"/></g><g clip-path="url(#e4c26632ad)"><path fill="#000000" d="M 98.6875 98.6875 L 98.6875 266.6875 L 266.6875 266.6875 L 266.6875 98.6875 L 98.6875 98.6875 M 261.335938 261.335938 L 103.925781 261.335938 L 103.925781 103.925781 L 261.335938 103.925781 L 261.335938 261.335938 " fill-opacity="1" fill-rule="nonzero"/></g><g fill="#000000" fill-opacity="1"><g transform="translate(125.867003, 160.265005)"><g><path d="M 13.671875 -33.109375 C 15.804688 -33.109375 17.757812 -32.710938 19.53125 -31.921875 C 21.300781 -31.128906 22.8125 -30.023438 24.0625 -28.609375 C 25.320312 -27.203125 26.300781 -25.503906 27 -23.515625 C 27.695312 -21.535156 28.046875 -19.351562 28.046875 -16.96875 C 28.046875 -14.363281 27.65625 -11.984375 26.875 -9.828125 C 26.101562 -7.679688 25.019531 -5.847656 23.625 -4.328125 C 22.226562 -2.804688 20.535156 -1.625 18.546875 -0.78125 C 16.566406 0.0507812 14.382812 0.46875 12 0.46875 C 10.226562 0.46875 8.472656 0.179688 6.734375 -0.390625 C 5.003906 -0.960938 3.550781 -1.734375 2.375 -2.703125 L 6 -7.25 C 6.957031 -6.507812 7.960938 -5.96875 9.015625 -5.625 C 10.078125 -5.28125 11.226562 -5.109375 12.46875 -5.109375 C 15.25 -5.109375 17.4375 -6.0625 19.03125 -7.96875 C 20.632812 -9.875 21.515625 -12.582031 21.671875 -16.09375 C 20.617188 -14.914062 19.316406 -13.992188 17.765625 -13.328125 C 16.210938 -12.660156 14.566406 -12.328125 12.828125 -12.328125 C 11.191406 -12.328125 9.675781 -12.570312 8.28125 -13.0625 C 6.882812 -13.5625 5.679688 -14.253906 4.671875 -15.140625 C 3.660156 -16.023438 2.875 -17.078125 2.3125 -18.296875 C 1.757812 -19.523438 1.484375 -20.863281 1.484375 -22.3125 C 1.484375 -23.863281 1.789062 -25.296875 2.40625 -26.609375 C 3.03125 -27.929688 3.878906 -29.070312 4.953125 -30.03125 C 6.023438 -31 7.3125 -31.753906 8.8125 -32.296875 C 10.3125 -32.835938 11.929688 -33.109375 13.671875 -33.109375 Z M 13.859375 -17.34375 C 15.316406 -17.34375 16.671875 -17.648438 17.921875 -18.265625 C 19.179688 -18.890625 20.304688 -19.773438 21.296875 -20.921875 C 20.796875 -22.972656 19.894531 -24.617188 18.59375 -25.859375 C 17.289062 -27.097656 15.742188 -27.71875 13.953125 -27.71875 C 12.179688 -27.71875 10.695312 -27.21875 9.5 -26.21875 C 8.3125 -25.226562 7.71875 -23.972656 7.71875 -22.453125 C 7.71875 -20.941406 8.289062 -19.710938 9.4375 -18.765625 C 10.582031 -17.816406 12.054688 -17.34375 13.859375 -17.34375 Z M 13.859375 -17.34375 "/></g></g></g><g fill="#000000" fill-opacity="1"><g transform="translate(155.720079, 160.265005)"><g><path d="M -0.1875 0 L 13.203125 -32.546875 L 21.015625 -32.546875 L 34.21875 0 L 26.921875 0 L 23.625 -8.5625 L 10.1875 -8.5625 L 6.828125 0 Z M 12.28125 -13.953125 L 21.578125 -13.953125 L 16.96875 -25.953125 Z M 12.28125 -13.953125 "/></g></g></g><g fill="#000000" fill-opacity="1"><g transform="translate(187.499992, 238.665102)"><g><path d="M 7.625 0 L -0.140625 0 L 12.234375 -16.828125 L 0.515625 -32.546875 L 8.5625 -32.546875 L 16.28125 -21.859375 L 23.953125 -32.546875 L 31.71875 -32.546875 L 20.140625 -16.828125 L 32.6875 0 L 24.640625 0 L 16.140625 -11.859375 Z M 7.625 0 "/></g></g></g><g fill="#000000" fill-opacity="1"><g transform="translate(220.282573, 238.665102)"><g><path d="M 13.015625 0 L -0.1875 -32.546875 L 7.109375 -32.546875 L 17.0625 -6.828125 L 27.25 -32.546875 L 34.21875 -32.546875 L 20.828125 0 Z M 13.015625 0 "/></g></g></g></svg>